<?xml version="1.0" encoding="iso-8859-1"?>
<!-- Generator: Adobe Illustrator 19.0.0, SVG Export Plug-In . SVG Version: 6.00 Build 0)  -->
<svg version="1.1" id="Capa_1" xmlns="http://www.w3.org/2000/svg" xmlns:xlink="http://www.w3.org/1999/xlink" x="0px" y="0px"
	 viewBox="0 0 512 512" style="enable-background:new 0 0 512 512;" xml:space="preserve">
<g>
	<path style="fill:#5F422F;" d="M327.476,508.076c-0.649,0.355-1.315,0.684-1.991,0.993
		C326.162,508.76,326.827,508.432,327.476,508.076z"/>
	<path style="fill:#5F422F;" d="M322.684,510.188c-0.696,0.239-1.403,0.458-2.121,0.649
		C321.282,510.647,321.988,510.427,322.684,510.188z"/>
	<path style="fill:#5F422F;" d="M325.087,509.249c-0.673,0.297-1.356,0.572-2.054,0.82
		C323.731,509.821,324.414,509.546,325.087,509.249z"/>
	<path style="fill:#5F422F;" d="M331.543,505.403c-0.578,0.447-1.168,0.877-1.777,1.283
		C330.376,506.281,330.966,505.85,331.543,505.403z"/>
	<path style="fill:#5F422F;" d="M329.506,506.854c-0.593,0.387-1.201,0.756-1.822,1.103
		C328.305,507.609,328.912,507.242,329.506,506.854z"/>
	<path style="fill:#5F422F;" d="M317.74,511.44c-0.745,0.124-1.499,0.221-2.26,0.29C316.241,511.661,316.995,511.563,317.74,511.44z
		"/>
	<path style="fill:#5F422F;" d="M320.426,510.876c-0.74,0.192-1.493,0.349-2.254,0.487
		C318.931,511.225,319.685,511.068,320.426,510.876z"/>
	<path style="fill:#5F422F;" d="M315.06,511.762c-0.797,0.062-1.6,0.103-2.414,0.103
		C313.458,511.865,314.262,511.824,315.06,511.762z"/>
	<path style="fill:#5F422F;" d="M333.55,503.714c-0.537,0.493-1.094,0.964-1.663,1.419
		C332.457,504.678,333.013,504.208,333.55,503.714z"/>
	<path style="fill:#5F422F;" d="M338.396,498.039c-0.403,0.606-0.827,1.195-1.27,1.769
		C337.569,499.233,337.994,498.644,338.396,498.039z"/>
	<path style="fill:#5F422F;" d="M339.711,495.875c-0.35,0.634-0.726,1.252-1.118,1.859
		C338.985,497.127,339.36,496.509,339.711,495.875z"/>
	<path style="fill:#5F422F;" d="M340.78,493.735c-0.311,0.684-0.639,1.357-0.997,2.013
		C340.141,495.092,340.469,494.418,340.78,493.735z"/>
	<path style="fill:#5F422F;" d="M336.858,500.15c-0.456,0.576-0.929,1.138-1.424,1.679
		C335.929,501.288,336.401,500.726,336.858,500.15z"/>
	<path style="fill:#5F422F;" d="M342.568,488.697c-0.194,0.751-0.422,1.486-0.669,2.213
		C342.145,490.183,342.374,489.448,342.568,488.697z"/>
	<path style="fill:#5F422F;" d="M341.767,491.296c-0.246,0.695-0.518,1.378-0.812,2.048
		C341.25,492.674,341.521,491.991,341.767,491.296z"/>
	<path style="fill:#5F422F;" d="M335.267,502.004c-0.481,0.516-0.979,1.015-1.493,1.499
		C334.288,503.019,334.787,502.52,335.267,502.004z"/>
</g>
<path style="fill:#825B43;" d="M291.543,187.01c-9.787-21.531-14.891-44.81-14.944-68.279c-0.062-27.494,0-109.976,0-109.976
	h-41.196h-16.727l-5.541,37.957c-2.308,15.809-2.333,31.868-0.073,47.685l0,0c4.501,31.505-0.105,63.64-13.275,92.613v0.001
	c-20.646,45.422-31.328,94.737-31.328,144.631v149.326c0,2.667,0.338,5.256,0.973,7.724l0,0l153.44,10.299
	c0-7.18,0-160.28,0-167.349C322.872,281.748,312.188,232.432,291.543,187.01z"/>
<path style="fill:#5F422F;" d="M312.214,187.01c-13.169-28.972-17.775-61.108-13.275-92.613l0,0
	c2.26-15.816,2.235-31.876-0.073-47.685l-5.542-37.958H256c0,0-0.062,82.482,0,109.976c0.053,23.234,5.056,46.281,14.652,67.632
	c20.361,45.301,31.622,94.167,31.621,143.833c-0.001,89.184,0.118,126.671,0.008,143.162c-0.057,8.491-6.958,15.335-15.449,15.335
	H169.431l0,0c3.431,13.326,15.527,23.173,29.924,23.173c123.099,0,117.702,1.067,126.131-2.796
	c10.672-4.884,18.056-15.651,18.056-28.101V331.642C343.543,281.748,332.861,232.432,312.214,187.01z"/>
<path style="fill:#EFA628;" d="M337.365,266.232h-20.688c-5.502,0-10.722-2.445-14.237-6.678c-3.108-3.744-6.442-7.117-9.966-10.077
	l9.8,167.811c0.055-0.065,0.112-0.127,0.167-0.193c3.514-4.233,8.736-6.678,14.237-6.678h26.866v-78.777
	C343.543,309.631,341.46,287.733,337.365,266.232z"/>
<path style="fill:#F3D035;" d="M292.473,249.477c-10.7-8.986-23.164-14.143-36.473-14.143c-20.166,0-38.394,11.833-51.478,30.897
	h-29.886c-4.096,21.501-6.178,43.399-6.178,65.41v78.778h36.064c13.084,19.065,31.312,30.897,51.478,30.897
	c17.617,0,33.751-9.034,46.273-24.028v-85.646C302.273,303.884,298.962,276.306,292.473,249.477z"/>
<path style="fill:#EFA628;" d="M256.001,410.419c-19.447,0-41.196-30.831-41.196-72.094s21.75-72.094,41.196-72.094
	s41.196,30.831,41.196,72.094S275.446,410.419,256.001,410.419z"/>
<path style="fill:#8C877E;" d="M305.476,21.284l-2.833-8.474C300.017,4.959,294.65,0,288.781,0h-23.173l12.722,30.897h23.173
	C304.805,30.897,306.953,25.7,305.476,21.284z"/>
<path style="fill:#C6C3B2;" d="M282.302,21.284l-2.833-8.474C276.843,4.959,271.477,0,265.607,0H256h-23.173h-9.607
	c-5.87,0-11.236,4.959-13.862,12.81l-2.833,8.474c-1.477,4.416,0.671,9.613,3.973,9.613h14.605h4.963h48.263
	C281.632,30.897,283.779,25.7,282.302,21.284z"/>
<g>
</g>
<g>
</g>
<g>
</g>
<g>
</g>
<g>
</g>
<g>
</g>
<g>
</g>
<g>
</g>
<g>
</g>
<g>
</g>
<g>
</g>
<g>
</g>
<g>
</g>
<g>
</g>
<g>
</g>
</svg>
