<svg id="svg" version="1.1" width="400" height="400" xmlns="http://www.w3.org/2000/svg" xmlns:xlink="http://www.w3.org/1999/xlink" style="display: block;"><g id="svgg"><path id="path0" d="M58.000 167.600 C 58.000 167.820,57.454 168.000,56.787 168.000 C 56.079 168.000,55.479 168.249,55.345 168.600 C 55.218 168.930,54.808 169.200,54.433 169.200 C 54.058 169.200,53.364 169.560,52.892 170.000 C 52.420 170.440,51.819 170.800,51.557 170.800 C 50.908 170.800,47.600 174.346,47.600 175.042 C 47.600 175.349,47.420 175.600,47.200 175.600 C 46.980 175.600,46.800 175.960,46.800 176.400 C 46.800 176.840,46.620 177.200,46.400 177.200 C 46.180 177.200,46.000 177.631,46.000 178.157 C 46.000 178.684,45.730 179.218,45.400 179.345 C 44.967 179.511,44.800 180.190,44.800 181.787 C 44.800 183.004,44.620 184.000,44.400 184.000 C 44.140 184.000,44.000 189.392,44.000 199.376 C 44.000 209.196,44.145 214.842,44.400 215.000 C 44.620 215.136,44.800 216.232,44.800 217.436 C 44.800 219.013,44.968 219.690,45.400 219.855 C 45.730 219.982,46.000 220.426,46.000 220.843 C 46.000 221.259,46.180 221.600,46.400 221.600 C 46.620 221.600,46.800 222.050,46.800 222.600 C 46.800 223.150,46.968 223.600,47.173 223.600 C 47.378 223.600,47.672 223.997,47.826 224.482 C 48.152 225.511,51.042 228.400,51.744 228.400 C 52.008 228.400,52.483 228.760,52.800 229.200 C 53.117 229.640,53.710 230.000,54.117 230.000 C 54.524 230.000,55.127 230.270,55.457 230.600 C 55.787 230.930,56.494 231.200,57.029 231.200 C 57.563 231.200,58.000 231.380,58.000 231.600 C 58.000 231.853,60.792 232.000,65.576 232.000 C 70.196 232.000,73.249 231.844,73.400 231.600 C 73.536 231.380,74.002 231.200,74.436 231.200 C 74.870 231.200,75.329 230.930,75.455 230.600 C 75.582 230.270,76.026 230.000,76.443 230.000 C 76.859 230.000,77.200 229.820,77.200 229.600 C 77.200 229.380,77.573 229.200,78.029 229.200 C 78.914 229.200,80.000 228.334,80.000 227.629 C 80.000 227.393,80.188 227.200,80.418 227.200 C 81.147 227.200,82.800 225.269,82.800 224.418 C 82.800 223.968,82.980 223.600,83.200 223.600 C 83.420 223.600,83.600 223.150,83.600 222.600 C 83.600 221.978,83.827 221.600,84.200 221.600 C 84.619 221.600,84.800 221.178,84.800 220.200 C 84.800 219.430,84.980 218.800,85.200 218.800 C 85.448 218.800,85.600 216.600,85.600 213.000 L 85.600 207.200 78.800 207.200 L 72.000 207.200 72.000 211.800 C 72.000 214.733,71.848 216.400,71.582 216.400 C 71.039 216.400,69.200 218.239,69.200 218.782 C 69.200 219.040,67.899 219.200,65.800 219.200 C 63.701 219.200,62.400 219.040,62.400 218.782 C 62.400 218.239,60.561 216.400,60.018 216.400 C 59.734 216.400,59.600 211.020,59.600 199.600 C 59.600 189.200,59.745 182.800,59.982 182.800 C 60.478 182.800,62.400 180.878,62.400 180.382 C 62.400 180.169,63.908 180.000,65.800 180.000 C 67.692 180.000,69.200 180.169,69.200 180.382 C 69.200 180.878,71.122 182.800,71.618 182.800 C 71.838 182.800,72.000 184.746,72.000 187.400 L 72.000 192.000 78.800 192.000 L 85.600 192.000 85.600 186.224 C 85.600 182.804,85.437 180.346,85.200 180.200 C 84.980 180.064,84.800 179.418,84.800 178.764 C 84.800 178.076,84.547 177.478,84.200 177.345 C 83.870 177.218,83.600 176.774,83.600 176.357 C 83.600 175.941,83.420 175.600,83.200 175.600 C 82.980 175.600,82.800 175.232,82.800 174.782 C 82.800 173.931,81.147 172.000,80.418 172.000 C 80.188 172.000,80.000 171.807,80.000 171.571 C 80.000 170.866,78.914 170.000,78.029 170.000 C 77.573 170.000,77.200 169.820,77.200 169.600 C 77.200 169.380,76.840 169.200,76.400 169.200 C 75.956 169.200,75.600 168.933,75.600 168.600 C 75.600 168.227,75.222 168.000,74.600 168.000 C 74.050 168.000,73.600 167.820,73.600 167.600 C 73.600 167.347,70.733 167.200,65.800 167.200 C 60.867 167.200,58.000 167.347,58.000 167.600 M99.887 168.246 C 99.463 168.671,99.532 230.800,99.957 230.800 C 100.154 230.800,100.416 230.534,100.541 230.210 C 100.725 229.730,101.981 229.599,107.284 229.510 L 113.800 229.400 113.800 199.600 L 113.800 169.800 107.240 169.600 C 101.384 169.421,100.652 169.323,100.427 168.679 C 100.288 168.283,100.046 168.088,99.887 168.246 M181.298 199.491 L 181.400 231.000 188.600 231.000 L 195.800 231.000 195.800 199.600 L 195.800 168.200 188.498 168.091 L 181.195 167.982 181.298 199.491 M210.800 174.600 L 210.800 181.200 221.000 181.200 C 230.741 181.200,231.200 181.234,231.200 181.957 C 231.200 182.374,230.930 182.818,230.600 182.945 C 230.270 183.071,230.000 183.541,230.000 183.987 C 230.000 184.434,229.820 184.800,229.600 184.800 C 229.380 184.800,229.200 185.250,229.200 185.800 C 229.200 186.350,229.020 186.800,228.800 186.800 C 228.580 186.800,228.400 187.141,228.400 187.557 C 228.400 187.974,228.130 188.418,227.800 188.545 C 227.470 188.671,227.200 189.141,227.200 189.587 C 227.200 190.034,227.020 190.400,226.800 190.400 C 226.580 190.400,226.400 190.760,226.400 191.200 C 226.400 191.640,226.220 192.000,226.000 192.000 C 225.780 192.000,225.600 192.431,225.600 192.957 C 225.600 193.484,225.330 194.018,225.000 194.145 C 224.670 194.271,224.400 194.741,224.400 195.187 C 224.400 195.634,224.220 196.000,224.000 196.000 C 223.780 196.000,223.600 196.360,223.600 196.800 C 223.600 197.240,223.420 197.600,223.200 197.600 C 222.980 197.600,222.800 198.050,222.800 198.600 C 222.800 199.150,222.620 199.600,222.400 199.600 C 222.180 199.600,222.000 200.050,222.000 200.600 C 222.000 201.222,221.773 201.600,221.400 201.600 C 221.067 201.600,220.800 201.956,220.800 202.400 C 220.800 202.840,220.620 203.200,220.400 203.200 C 220.180 203.200,220.000 203.650,220.000 204.200 C 220.000 204.750,219.820 205.200,219.600 205.200 C 219.380 205.200,219.200 205.650,219.200 206.200 C 219.200 206.822,218.973 207.200,218.600 207.200 C 218.267 207.200,218.000 207.556,218.000 208.000 C 218.000 208.440,217.820 208.800,217.600 208.800 C 217.380 208.800,217.200 209.250,217.200 209.800 C 217.200 210.350,217.020 210.800,216.800 210.800 C 216.580 210.800,216.400 211.141,216.400 211.557 C 216.400 211.974,216.130 212.418,215.800 212.545 C 215.470 212.671,215.200 213.141,215.200 213.587 C 215.200 214.034,215.020 214.400,214.800 214.400 C 214.580 214.400,214.400 214.850,214.400 215.400 C 214.400 215.950,214.220 216.400,214.000 216.400 C 213.780 216.400,213.600 216.741,213.600 217.157 C 213.600 217.574,213.330 218.018,213.000 218.145 C 212.670 218.271,212.400 218.741,212.400 219.187 C 212.400 219.634,212.220 220.000,212.000 220.000 C 211.780 220.000,211.600 220.450,211.600 221.000 C 211.600 221.550,211.420 222.000,211.200 222.000 C 210.980 222.000,210.800 222.283,210.800 222.629 C 210.800 222.974,210.523 223.534,210.185 223.873 C 209.710 224.347,209.595 225.232,209.685 227.744 L 209.800 231.000 228.800 231.111 C 239.250 231.172,248.205 231.123,248.700 231.003 C 249.587 230.788,249.600 230.690,249.600 224.392 L 249.600 218.000 239.000 218.000 C 232.200 218.000,228.400 217.857,228.400 217.600 C 228.400 217.380,228.580 217.200,228.800 217.200 C 229.020 217.200,229.200 216.750,229.200 216.200 C 229.200 215.650,229.380 215.200,229.600 215.200 C 229.820 215.200,230.000 214.859,230.000 214.443 C 230.000 214.026,230.270 213.582,230.600 213.455 C 230.930 213.329,231.200 212.859,231.200 212.413 C 231.200 211.966,231.380 211.600,231.600 211.600 C 231.820 211.600,232.000 211.150,232.000 210.600 C 232.000 210.050,232.180 209.600,232.400 209.600 C 232.620 209.600,232.800 209.240,232.800 208.800 C 232.800 208.360,232.980 208.000,233.200 208.000 C 233.420 208.000,233.600 207.550,233.600 207.000 C 233.600 206.378,233.827 206.000,234.200 206.000 C 234.573 206.000,234.800 205.622,234.800 205.000 C 234.800 204.450,234.980 204.000,235.200 204.000 C 235.420 204.000,235.600 203.651,235.600 203.224 C 235.600 202.797,235.780 202.336,236.000 202.200 C 236.220 202.064,236.400 201.623,236.400 201.219 C 236.400 200.816,236.670 200.382,237.000 200.255 C 237.330 200.129,237.600 199.659,237.600 199.213 C 237.600 198.766,237.780 198.400,238.000 198.400 C 238.220 198.400,238.400 198.040,238.400 197.600 C 238.400 197.160,238.580 196.800,238.800 196.800 C 239.020 196.800,239.200 196.369,239.200 195.843 C 239.200 195.316,239.470 194.782,239.800 194.655 C 240.130 194.529,240.400 194.059,240.400 193.613 C 240.400 193.166,240.580 192.800,240.800 192.800 C 241.020 192.800,241.200 192.440,241.200 192.000 C 241.200 191.560,241.380 191.200,241.600 191.200 C 241.820 191.200,242.000 190.570,242.000 189.800 C 242.000 188.822,242.181 188.400,242.600 188.400 C 242.973 188.400,243.200 188.022,243.200 187.400 C 243.200 186.850,243.380 186.400,243.600 186.400 C 243.820 186.400,244.000 186.040,244.000 185.600 C 244.000 185.160,244.180 184.800,244.400 184.800 C 244.620 184.800,244.800 184.350,244.800 183.800 C 244.800 183.178,245.027 182.800,245.400 182.800 C 245.733 182.800,246.000 182.444,246.000 182.000 C 246.000 181.560,246.180 181.200,246.400 181.200 C 246.620 181.200,246.800 180.750,246.800 180.200 C 246.800 179.650,246.980 179.200,247.200 179.200 C 247.420 179.200,247.600 178.750,247.600 178.200 C 247.600 177.578,247.827 177.200,248.200 177.200 C 248.533 177.200,248.800 176.844,248.800 176.400 C 248.800 175.960,248.980 175.600,249.200 175.600 C 249.439 175.600,249.600 174.067,249.600 171.800 L 249.600 168.000 230.200 168.000 L 210.800 168.000 210.800 174.600 M263.698 199.496 L 263.800 231.000 280.800 231.111 C 290.150 231.172,298.209 231.123,298.710 231.001 C 299.616 230.781,299.619 230.758,299.510 224.090 L 299.400 217.400 288.900 217.293 L 278.400 217.187 278.400 210.593 L 278.400 204.000 285.800 204.000 L 293.200 204.000 293.200 198.629 C 293.200 191.552,293.743 192.000,285.171 192.000 L 278.400 192.000 278.400 186.607 L 278.400 181.213 288.900 181.107 L 299.400 181.000 299.400 174.600 L 299.400 168.200 281.498 168.096 L 263.595 167.992 263.698 199.496 M313.600 199.590 L 313.600 231.200 319.767 231.200 C 323.159 231.200,326.219 231.091,326.567 230.957 C 327.128 230.742,327.200 229.045,327.200 215.957 C 327.200 203.106,327.278 201.200,327.800 201.200 C 328.173 201.200,328.400 201.578,328.400 202.200 C 328.400 202.750,328.580 203.200,328.800 203.200 C 329.020 203.200,329.200 203.650,329.200 204.200 C 329.200 204.750,329.380 205.200,329.600 205.200 C 329.820 205.200,330.000 205.476,330.000 205.813 C 330.000 206.149,330.270 206.529,330.600 206.655 C 330.930 206.782,331.200 207.277,331.200 207.754 C 331.200 208.232,331.560 208.883,332.000 209.200 C 332.440 209.517,332.800 210.187,332.800 210.688 C 332.800 211.232,333.042 211.600,333.400 211.600 C 333.773 211.600,334.000 211.978,334.000 212.600 C 334.000 213.150,334.180 213.600,334.400 213.600 C 334.620 213.600,334.800 213.960,334.800 214.400 C 334.800 214.840,334.980 215.200,335.200 215.200 C 335.420 215.200,335.600 215.566,335.600 216.013 C 335.600 216.459,335.870 216.929,336.200 217.055 C 336.530 217.182,336.800 217.626,336.800 218.043 C 336.800 218.459,336.980 218.800,337.200 218.800 C 337.420 218.800,337.600 219.070,337.600 219.400 C 337.600 219.730,337.780 220.000,338.000 220.000 C 338.220 220.000,338.400 220.360,338.400 220.800 C 338.400 221.244,338.667 221.600,339.000 221.600 C 339.373 221.600,339.600 221.978,339.600 222.600 C 339.600 223.150,339.780 223.600,340.000 223.600 C 340.220 223.600,340.400 224.050,340.400 224.600 C 340.400 225.150,340.580 225.600,340.800 225.600 C 341.020 225.600,341.200 225.894,341.200 226.254 C 341.200 226.614,341.650 227.325,342.200 227.835 C 342.750 228.345,343.200 228.948,343.200 229.176 C 343.200 230.949,353.207 232.326,355.502 230.869 C 355.900 230.616,355.984 224.050,355.902 199.375 L 355.800 168.200 349.000 168.200 L 342.200 168.200 342.095 183.500 C 342.029 193.240,341.847 198.800,341.595 198.800 C 341.378 198.800,341.200 198.350,341.200 197.800 C 341.200 197.250,341.020 196.800,340.800 196.800 C 340.580 196.800,340.400 196.434,340.400 195.987 C 340.400 195.541,340.130 195.071,339.800 194.945 C 339.470 194.818,339.200 194.374,339.200 193.957 C 339.200 193.541,339.020 193.200,338.800 193.200 C 338.580 193.200,338.400 192.750,338.400 192.200 C 338.400 191.650,338.220 191.200,338.000 191.200 C 337.780 191.200,337.600 190.840,337.600 190.400 C 337.600 189.956,337.333 189.600,337.000 189.600 C 336.627 189.600,336.400 189.222,336.400 188.600 C 336.400 188.050,336.220 187.600,336.000 187.600 C 335.780 187.600,335.600 187.251,335.600 186.824 C 335.600 186.397,335.420 185.936,335.200 185.800 C 334.980 185.664,334.800 185.203,334.800 184.776 C 334.800 184.349,334.530 184.000,334.200 184.000 C 333.870 184.000,333.600 183.730,333.600 183.400 C 333.600 183.070,333.420 182.800,333.200 182.800 C 332.980 182.800,332.800 182.440,332.800 182.000 C 332.800 181.560,332.620 181.200,332.400 181.200 C 332.180 181.200,332.000 180.750,332.000 180.200 C 332.000 179.650,331.820 179.200,331.600 179.200 C 331.380 179.200,331.200 178.834,331.200 178.387 C 331.200 177.941,330.930 177.471,330.600 177.345 C 330.270 177.218,330.000 176.774,330.000 176.357 C 330.000 175.941,329.820 175.600,329.600 175.600 C 329.380 175.600,329.200 175.150,329.200 174.600 C 329.200 174.050,329.020 173.600,328.800 173.600 C 328.580 173.600,328.400 173.324,328.400 172.987 C 328.400 172.651,328.130 172.271,327.800 172.145 C 327.470 172.018,327.200 171.484,327.200 170.957 C 327.200 170.431,327.033 170.000,326.828 170.000 C 326.623 170.000,326.398 169.595,326.328 169.100 C 326.202 168.216,326.091 168.198,319.900 168.090 L 313.600 167.980 313.600 199.590 M128.800 174.990 L 128.800 180.380 135.100 180.490 L 141.400 180.600 141.600 205.000 L 141.800 229.400 148.097 229.510 L 154.394 229.620 154.497 205.110 L 154.600 180.600 161.300 180.490 L 168.000 180.381 168.000 174.990 L 168.000 169.600 148.400 169.600 L 128.800 169.600 128.800 174.990 M227.600 241.600 C 227.600 241.820,227.330 242.000,227.000 242.000 C 226.670 242.000,226.400 242.270,226.400 242.600 C 226.400 242.930,226.220 243.200,226.000 243.200 C 225.760 243.200,225.600 244.800,225.600 247.200 C 225.600 249.600,225.760 251.200,226.000 251.200 C 226.220 251.200,226.400 251.405,226.400 251.656 C 226.400 252.929,230.465 253.865,230.935 252.700 C 231.096 252.300,231.143 252.300,231.168 252.700 C 231.186 252.982,231.724 253.200,232.400 253.200 L 233.600 253.200 233.600 248.200 C 233.600 245.133,233.445 243.200,233.200 243.200 C 232.980 243.200,232.800 242.995,232.800 242.744 C 232.800 241.878,231.393 241.225,229.500 241.213 C 228.455 241.206,227.600 241.380,227.600 241.600 M174.667 242.267 C 174.520 242.413,174.400 244.933,174.400 247.867 L 174.400 253.200 177.200 253.200 C 178.740 253.200,180.000 253.033,180.000 252.828 C 180.000 252.623,180.405 252.398,180.900 252.328 C 182.150 252.150,182.505 244.199,181.324 242.820 C 180.621 241.998,175.372 241.562,174.667 242.267 M182.800 247.585 L 182.800 253.200 184.600 253.200 L 186.400 253.200 186.454 251.300 C 186.484 250.255,186.587 249.805,186.682 250.300 C 186.778 250.795,187.023 251.200,187.228 251.200 C 187.433 251.200,187.600 251.650,187.600 252.200 C 187.600 253.119,187.747 253.200,189.400 253.200 L 191.200 253.200 191.200 251.400 C 191.200 250.410,191.027 249.600,190.815 249.600 C 190.603 249.600,190.378 247.935,190.315 245.900 L 190.200 242.200 186.500 242.085 L 182.800 241.970 182.800 247.585 M192.282 242.251 C 192.127 242.406,192.000 244.941,192.000 247.883 L 192.000 253.232 195.300 253.116 L 198.600 253.000 198.723 251.300 L 198.846 249.600 197.423 249.600 C 196.640 249.600,196.000 249.420,196.000 249.200 C 196.000 248.980,196.360 248.800,196.800 248.800 C 197.448 248.800,197.600 248.533,197.600 247.400 C 197.600 246.267,197.448 246.000,196.800 246.000 C 196.356 246.000,196.000 245.733,196.000 245.400 C 196.000 244.979,196.425 244.800,197.425 244.800 C 198.792 244.800,198.846 244.747,198.725 243.500 L 198.600 242.200 195.582 242.085 C 193.922 242.021,192.437 242.096,192.282 242.251 M199.600 244.800 C 199.600 246.400,199.771 247.600,200.000 247.600 C 200.220 247.600,200.400 248.550,200.400 249.711 C 200.400 252.712,201.023 253.144,205.374 253.160 L 208.800 253.173 208.800 251.786 C 208.800 251.024,208.980 250.400,209.200 250.400 C 209.420 250.400,209.600 249.429,209.600 248.243 C 209.600 246.659,209.766 246.022,210.223 245.846 C 210.682 245.670,210.814 245.158,210.723 243.904 C 210.538 241.346,207.353 240.972,207.093 243.478 L 206.934 245.000 206.867 243.500 L 206.800 242.000 203.200 242.000 L 199.600 242.000 199.600 244.800 M211.600 247.600 L 211.600 253.200 213.400 253.200 L 215.200 253.200 215.200 247.600 L 215.200 242.000 213.400 242.000 L 211.600 242.000 211.600 247.600 M216.400 247.626 L 216.400 253.200 218.200 253.200 C 219.853 253.200,220.000 253.119,220.000 252.200 C 220.000 250.956,220.698 250.876,220.872 252.100 C 220.978 252.848,221.287 253.021,222.700 253.123 L 224.400 253.246 224.400 247.649 L 224.400 242.052 220.400 242.052 L 216.400 242.052 216.400 247.626 M175.600 255.600 C 175.600 255.820,175.330 256.000,175.000 256.000 C 174.627 256.000,174.400 256.378,174.400 257.000 C 174.400 257.550,174.220 258.000,174.000 258.000 C 173.767 258.000,173.600 259.333,173.600 261.200 C 173.600 263.067,173.767 264.400,174.000 264.400 C 174.220 264.400,174.400 264.739,174.400 265.154 C 174.400 267.491,179.008 267.940,181.026 265.800 C 182.524 264.212,182.800 264.105,182.800 265.111 C 182.800 266.317,184.251 267.200,186.233 267.200 C 187.991 267.200,189.200 266.559,189.200 265.629 C 189.200 265.393,189.470 265.200,189.800 265.200 C 190.293 265.200,190.400 264.489,190.400 261.200 C 190.400 257.911,190.293 257.200,189.800 257.200 C 189.470 257.200,189.200 257.007,189.200 256.771 C 189.200 255.800,187.989 255.200,186.029 255.200 C 184.913 255.200,184.000 255.380,184.000 255.600 C 184.000 255.820,183.730 256.000,183.400 256.000 C 183.027 256.000,182.800 256.378,182.800 257.000 C 182.800 257.550,182.697 258.000,182.571 258.000 C 182.179 258.000,181.200 256.878,181.200 256.429 C 181.200 256.193,180.930 256.000,180.600 256.000 C 180.270 256.000,180.000 255.820,180.000 255.600 C 180.000 255.380,179.010 255.200,177.800 255.200 C 176.590 255.200,175.600 255.380,175.600 255.600 M191.200 261.198 L 191.200 266.397 196.200 266.372 L 201.200 266.347 201.200 261.174 L 201.200 256.000 199.000 256.000 C 197.311 256.000,196.800 256.139,196.800 256.600 C 196.800 256.930,196.620 257.200,196.400 257.200 C 196.180 257.200,196.000 256.930,196.000 256.600 C 196.000 256.133,195.467 256.000,193.600 256.000 L 191.200 256.000 191.200 261.198 M202.400 261.200 L 202.400 266.400 204.200 266.400 C 205.990 266.400,206.000 266.393,206.000 265.000 C 206.000 263.902,206.160 263.600,206.744 263.600 C 207.153 263.600,207.826 263.150,208.239 262.600 C 208.652 262.050,209.127 261.600,209.295 261.600 C 209.463 261.600,209.600 262.050,209.600 262.600 C 209.600 263.150,209.420 263.600,209.200 263.600 C 208.980 263.600,208.800 264.230,208.800 265.000 C 208.800 266.393,208.810 266.400,210.600 266.400 C 211.613 266.400,212.400 266.213,212.400 265.971 C 212.400 265.736,212.670 265.273,213.000 264.943 C 213.533 264.410,213.600 264.457,213.600 265.371 L 213.600 266.400 217.200 266.400 C 220.133 266.400,220.800 266.289,220.800 265.800 C 220.800 265.470,221.070 265.200,221.400 265.200 C 221.730 265.200,222.000 265.470,222.000 265.800 C 222.000 266.244,222.467 266.400,223.800 266.400 L 225.600 266.400 225.600 262.200 C 225.600 259.667,225.759 258.000,226.000 258.000 C 226.220 258.000,226.400 258.360,226.400 258.800 C 226.400 259.240,226.580 259.600,226.800 259.600 C 227.020 259.600,227.200 260.037,227.200 260.571 C 227.200 261.106,227.470 261.813,227.800 262.143 C 228.158 262.501,228.400 263.479,228.400 264.571 L 228.400 266.400 230.200 266.400 L 232.000 266.400 232.000 264.000 C 232.000 262.667,232.178 261.600,232.400 261.600 C 232.620 261.600,232.800 261.150,232.800 260.600 C 232.800 260.050,232.980 259.600,233.200 259.600 C 233.420 259.600,233.600 259.305,233.600 258.944 C 233.600 258.583,233.899 258.069,234.265 257.802 C 236.137 256.433,234.688 256.000,228.239 256.000 L 222.053 256.000 221.887 257.100 L 221.720 258.200 221.660 257.100 C 221.602 256.041,221.519 256.000,219.400 256.000 L 217.200 256.000 217.200 259.424 C 217.200 261.604,217.055 262.757,216.800 262.600 C 216.580 262.464,216.400 261.566,216.400 260.605 C 216.400 259.585,216.150 258.607,215.800 258.257 C 215.470 257.927,215.200 257.284,215.200 256.829 C 215.200 256.091,214.959 256.000,213.000 256.000 C 210.811 256.000,210.800 256.006,210.800 257.229 C 210.800 257.904,210.530 258.727,210.200 259.057 C 209.667 259.590,209.600 259.521,209.600 258.429 C 209.600 257.753,209.420 257.200,209.200 257.200 C 208.980 257.200,208.800 256.930,208.800 256.600 C 208.800 256.117,208.178 256.000,205.600 256.000 L 202.400 256.000 202.400 261.200 M186.683 261.695 C 186.587 262.193,186.505 261.880,186.501 261.000 C 186.496 260.120,186.575 259.713,186.675 260.095 C 186.775 260.478,186.779 261.198,186.683 261.695 M182.000 261.200 C 182.000 261.420,181.190 261.600,180.200 261.600 C 179.210 261.600,178.400 261.420,178.400 261.200 C 178.400 260.980,179.210 260.800,180.200 260.800 C 181.190 260.800,182.000 260.980,182.000 261.200 " stroke="none" fill="#050708" fill-rule="evenodd"></path><path id="path1" d="M100.532 169.000 C 100.610 169.234,103.393 169.483,107.233 169.600 L 113.800 169.800 113.800 199.600 L 113.800 229.400 107.233 229.600 C 103.393 229.717,100.610 229.966,100.532 230.200 C 100.424 230.524,113.844 230.399,114.300 230.072 C 114.355 230.032,114.400 216.320,114.400 199.600 C 114.400 182.880,114.355 169.168,114.300 169.128 C 113.844 168.801,100.424 168.676,100.532 169.000 M128.264 169.304 C 127.661 169.745,127.589 170.478,127.688 175.204 L 127.800 180.600 134.400 180.800 L 141.000 181.000 141.103 205.493 L 141.206 229.986 142.103 230.208 C 142.596 230.330,145.610 230.378,148.800 230.315 L 154.600 230.200 154.703 205.510 L 154.806 180.819 161.303 180.695 L 167.800 180.571 161.200 180.585 L 154.600 180.600 154.497 205.110 L 154.394 229.620 148.097 229.510 L 141.800 229.400 141.600 205.000 L 141.400 180.600 135.100 180.490 L 128.800 180.380 128.800 174.990 L 128.800 169.600 148.400 169.600 C 161.200 169.600,168.000 169.461,168.000 169.200 C 168.000 168.559,129.144 168.661,128.264 169.304 " stroke="none" fill="#873031" fill-rule="evenodd"></path><path id="path2" d="M189.376 38.987 C 188.835 39.397,187.542 39.578,185.100 39.587 C 183.042 39.595,181.600 39.765,181.600 40.000 C 181.600 40.222,180.533 40.400,179.200 40.400 C 177.867 40.400,176.800 40.578,176.800 40.800 C 176.800 41.020,176.159 41.200,175.375 41.200 C 173.963 41.200,170.442 42.115,169.105 42.829 C 168.723 43.033,167.956 43.200,167.400 43.200 C 166.844 43.200,166.077 43.358,165.695 43.551 C 164.842 43.982,162.356 44.777,161.119 45.016 C 160.615 45.113,160.142 45.374,160.068 45.596 C 159.994 45.818,159.586 46.000,159.161 46.000 C 158.737 46.000,158.077 46.155,157.695 46.345 C 154.307 48.027,152.522 48.812,152.100 48.806 C 151.825 48.803,151.600 48.980,151.600 49.200 C 151.600 49.420,151.150 49.600,150.600 49.600 C 150.050 49.600,149.600 49.780,149.600 50.000 C 149.600 50.220,149.324 50.400,148.987 50.400 C 148.651 50.400,148.271 50.670,148.145 51.000 C 148.018 51.330,147.484 51.600,146.957 51.600 C 146.431 51.600,146.000 51.780,146.000 52.000 C 146.000 52.220,145.722 52.400,145.383 52.400 C 145.044 52.400,144.371 52.768,143.889 53.218 C 143.406 53.668,142.558 54.265,142.005 54.544 C 140.262 55.426,139.119 56.171,138.085 57.100 C 137.534 57.595,136.921 58.000,136.722 58.000 C 136.523 58.000,135.712 58.630,134.919 59.400 C 134.126 60.170,133.322 60.800,133.132 60.800 C 132.941 60.800,132.174 61.430,131.426 62.200 C 130.679 62.970,129.954 63.600,129.815 63.600 C 129.398 63.600,127.600 65.533,127.600 65.982 C 127.600 66.212,127.432 66.400,127.227 66.400 C 126.850 66.400,122.000 71.044,122.000 71.405 C 122.000 71.512,121.685 71.933,121.300 72.340 C 120.226 73.475,119.200 74.785,119.200 75.022 C 119.200 75.139,118.750 75.720,118.200 76.313 C 117.650 76.907,117.200 77.553,117.200 77.750 C 117.200 77.947,116.750 78.525,116.200 79.035 C 115.650 79.545,115.200 80.158,115.200 80.398 C 115.200 80.637,114.840 81.220,114.400 81.692 C 113.960 82.164,113.600 82.877,113.600 83.275 C 113.600 83.674,113.450 84.000,113.266 84.000 C 113.082 84.000,112.171 85.485,111.243 87.300 C 110.315 89.115,109.413 90.870,109.240 91.200 C 108.162 93.251,108.000 93.668,108.000 94.395 C 108.000 94.838,107.820 95.200,107.600 95.200 C 107.380 95.200,107.200 95.573,107.200 96.029 C 107.200 96.484,106.930 97.127,106.600 97.457 C 106.270 97.787,106.000 98.494,106.000 99.029 C 106.000 99.563,105.820 100.000,105.600 100.000 C 105.380 100.000,105.200 100.540,105.200 101.200 C 105.200 101.860,105.020 102.400,104.800 102.400 C 104.580 102.400,104.400 103.105,104.400 103.967 C 104.400 104.828,104.223 105.593,104.006 105.667 C 103.563 105.816,102.822 108.830,102.522 111.700 C 102.412 112.745,102.160 113.600,101.961 113.600 C 101.763 113.600,101.600 114.841,101.600 116.357 C 101.600 118.396,101.449 119.172,101.020 119.337 C 100.522 119.528,100.452 122.986,100.520 144.080 L 100.600 168.600 106.600 168.697 C 109.900 168.750,113.005 168.889,113.500 169.005 L 114.400 169.215 114.400 199.600 L 114.400 229.985 113.500 230.195 C 113.005 230.311,109.900 230.450,106.600 230.503 L 100.600 230.600 100.600 255.567 C 100.600 275.185,100.707 280.569,101.100 280.700 C 101.436 280.812,101.600 281.775,101.600 283.633 C 101.600 285.155,101.763 286.400,101.961 286.400 C 102.160 286.400,102.412 287.255,102.522 288.300 C 102.804 290.995,103.538 294.098,104.004 294.564 C 104.222 294.782,104.400 295.453,104.400 296.056 C 104.400 296.659,104.580 297.264,104.800 297.400 C 105.020 297.536,105.200 298.166,105.200 298.800 C 105.200 299.434,105.380 300.064,105.600 300.200 C 105.820 300.336,106.000 300.784,106.000 301.195 C 106.000 301.606,106.270 302.213,106.600 302.543 C 106.930 302.873,107.200 303.516,107.200 303.971 C 107.200 304.427,107.380 304.800,107.600 304.800 C 107.820 304.800,108.000 305.162,108.000 305.605 C 108.000 306.333,108.237 306.937,109.251 308.800 C 109.431 309.130,109.868 310.030,110.223 310.800 C 110.577 311.570,111.065 312.560,111.307 313.000 C 111.549 313.440,111.997 314.295,112.303 314.900 C 112.609 315.505,113.025 316.000,113.229 316.000 C 113.433 316.000,113.600 316.274,113.600 316.609 C 113.600 317.315,115.464 320.302,116.494 321.247 C 116.882 321.603,117.200 322.055,117.200 322.251 C 117.200 322.447,117.650 323.093,118.200 323.687 C 118.750 324.280,119.200 324.876,119.200 325.011 C 119.200 325.146,119.425 325.482,119.700 325.758 C 119.975 326.033,120.740 326.946,121.400 327.786 C 122.937 329.741,129.490 336.397,129.894 336.411 C 130.062 336.417,130.650 337.042,131.200 337.800 C 131.750 338.558,132.470 339.184,132.800 339.192 C 133.130 339.200,134.063 339.835,134.873 340.603 C 135.684 341.372,136.512 342.000,136.715 342.000 C 136.917 342.000,137.555 342.437,138.131 342.971 C 138.707 343.505,140.083 344.450,141.189 345.071 C 142.294 345.692,143.199 346.335,143.200 346.500 C 143.200 346.665,143.470 346.800,143.800 346.800 C 144.130 346.800,144.400 346.980,144.400 347.200 C 144.400 347.420,144.760 347.600,145.200 347.600 C 145.640 347.600,146.002 347.735,146.004 347.900 C 146.006 348.065,146.816 348.555,147.804 348.990 C 148.792 349.424,149.600 349.919,149.600 350.090 C 149.600 350.260,150.050 350.400,150.600 350.400 C 151.150 350.400,151.600 350.580,151.600 350.800 C 151.600 351.020,151.949 351.200,152.376 351.200 C 152.803 351.200,153.257 351.369,153.384 351.575 C 153.724 352.125,156.009 353.200,156.838 353.200 C 157.231 353.200,157.664 353.380,157.800 353.600 C 157.936 353.820,158.409 354.000,158.852 354.000 C 159.295 354.000,159.927 354.270,160.257 354.600 C 160.587 354.930,161.284 355.200,161.805 355.200 C 162.326 355.200,162.864 355.380,163.000 355.600 C 163.136 355.820,163.676 356.000,164.200 356.000 C 164.724 356.000,165.264 356.180,165.400 356.400 C 165.536 356.620,166.335 356.800,167.175 356.800 C 168.044 356.800,168.916 357.058,169.200 357.400 C 169.474 357.730,170.295 358.000,171.025 358.000 C 171.755 358.000,172.464 358.180,172.600 358.400 C 172.736 358.620,173.737 358.800,174.824 358.800 C 175.911 358.800,176.800 358.980,176.800 359.200 C 176.800 359.420,177.792 359.600,179.005 359.600 C 180.218 359.600,181.523 359.774,181.905 359.986 C 183.977 361.137,216.468 362.287,217.747 361.254 C 217.996 361.053,219.865 360.760,221.900 360.602 C 223.935 360.444,225.600 360.154,225.600 359.958 C 225.600 359.761,226.669 359.600,227.976 359.600 C 229.283 359.600,230.464 359.420,230.600 359.200 C 230.736 358.980,231.636 358.800,232.600 358.800 C 233.564 358.800,234.464 358.620,234.600 358.400 C 234.736 358.180,235.432 358.000,236.147 358.000 C 236.862 358.000,237.796 357.736,238.224 357.413 C 238.651 357.090,239.484 356.820,240.076 356.813 C 240.668 356.806,241.264 356.620,241.400 356.400 C 241.536 356.180,242.256 356.000,243.000 356.000 C 243.744 356.000,244.464 355.820,244.600 355.600 C 244.736 355.380,245.184 355.200,245.595 355.200 C 246.006 355.200,246.613 354.930,246.943 354.600 C 247.273 354.270,247.828 354.000,248.177 354.000 C 248.526 354.000,249.123 353.838,249.505 353.641 C 250.722 353.011,256.961 350.060,258.000 349.623 C 259.000 349.202,260.423 348.377,260.800 348.000 C 260.910 347.890,261.810 347.365,262.800 346.833 C 263.790 346.301,265.030 345.446,265.555 344.933 C 266.080 344.420,266.729 344.000,266.999 344.000 C 267.268 344.000,267.826 343.550,268.239 343.000 C 268.652 342.450,269.217 342.000,269.495 342.000 C 269.773 342.000,270.000 341.820,270.000 341.600 C 270.000 341.380,270.269 341.200,270.598 341.200 C 271.296 341.200,281.294 331.241,282.293 329.550 C 282.667 328.918,283.114 328.400,283.286 328.400 C 283.459 328.400,283.600 328.229,283.600 328.021 C 283.600 327.812,284.050 327.156,284.600 326.562 C 285.150 325.969,285.600 325.239,285.600 324.942 C 285.600 324.644,285.780 324.400,286.000 324.400 C 286.220 324.400,286.400 324.207,286.400 323.971 C 286.400 323.736,286.625 323.292,286.900 322.985 C 288.144 321.598,288.400 321.194,288.400 320.617 C 288.400 320.278,288.535 319.998,288.700 319.995 C 288.865 319.993,289.344 319.273,289.764 318.395 C 290.185 317.518,290.680 316.800,290.864 316.800 C 291.049 316.800,291.200 316.528,291.200 316.195 C 291.200 315.862,291.360 315.277,291.555 314.895 C 291.750 314.513,292.396 313.120,292.991 311.800 C 293.585 310.480,294.235 309.087,294.436 308.705 C 294.636 308.323,294.800 307.659,294.800 307.229 C 294.800 306.799,294.980 306.336,295.200 306.200 C 295.420 306.064,295.601 305.648,295.602 305.276 C 295.604 304.904,295.874 304.084,296.202 303.454 C 296.531 302.824,296.800 301.890,296.800 301.378 C 296.800 300.866,296.980 300.336,297.200 300.200 C 297.420 300.064,297.600 299.254,297.600 298.400 C 297.600 297.546,297.767 296.744,297.972 296.617 C 298.177 296.491,298.468 295.398,298.619 294.188 C 298.770 292.979,299.052 291.891,299.247 291.771 C 299.441 291.651,299.600 290.404,299.600 289.000 C 299.600 287.596,299.780 286.336,300.000 286.200 C 300.259 286.040,300.400 278.063,300.400 263.576 L 300.400 241.200 270.400 241.200 L 240.400 241.200 240.400 258.576 C 240.400 269.729,240.257 276.041,240.000 276.200 C 239.780 276.336,239.594 277.382,239.587 278.524 C 239.580 279.711,239.323 280.932,238.987 281.376 C 238.664 281.804,238.400 282.481,238.400 282.882 C 238.400 283.283,238.220 283.968,238.000 284.405 C 237.780 284.842,237.420 285.558,237.200 285.995 C 236.980 286.432,236.800 287.018,236.800 287.299 C 236.800 287.579,236.350 288.293,235.800 288.887 C 235.250 289.480,234.800 290.208,234.800 290.504 C 234.800 290.801,234.215 291.693,233.500 292.486 C 232.785 293.279,231.860 294.394,231.444 294.964 C 231.028 295.534,230.466 296.000,230.195 296.000 C 229.924 296.000,229.164 296.630,228.506 297.400 C 227.848 298.170,227.123 298.800,226.893 298.800 C 226.664 298.800,225.362 299.430,224.000 300.200 C 222.638 300.970,221.191 301.600,220.785 301.600 C 220.379 301.600,219.936 301.780,219.800 302.000 C 219.664 302.220,219.059 302.400,218.456 302.400 C 217.853 302.400,217.189 302.570,216.980 302.778 C 216.771 302.985,215.726 303.200,214.658 303.255 C 213.506 303.313,212.634 303.567,212.515 303.877 C 212.359 304.284,210.537 304.400,204.334 304.400 C 199.411 304.400,196.443 304.255,196.587 304.021 C 196.719 303.808,195.761 303.522,194.402 303.368 C 193.071 303.218,191.886 302.938,191.767 302.747 C 191.649 302.556,191.034 302.400,190.400 302.400 C 189.766 302.400,189.136 302.220,189.000 302.000 C 188.864 301.780,188.223 301.600,187.576 301.600 C 186.797 301.600,186.400 301.397,186.400 301.000 C 186.400 300.670,186.147 300.400,185.838 300.400 C 185.237 300.400,182.102 298.865,181.344 298.200 C 181.094 297.980,180.383 297.440,179.764 297.000 C 178.426 296.048,175.600 293.131,175.600 292.702 C 175.600 292.536,175.364 292.400,175.075 292.400 C 174.786 292.400,174.302 291.770,174.000 291.000 C 173.698 290.230,173.324 289.600,173.169 289.600 C 173.014 289.600,172.774 289.150,172.636 288.600 C 172.498 288.050,172.208 287.600,171.992 287.600 C 171.777 287.600,171.600 287.150,171.600 286.600 C 171.600 286.050,171.459 285.600,171.287 285.600 C 170.998 285.600,170.378 283.766,169.766 281.100 C 169.627 280.495,169.353 280.000,169.157 280.000 C 168.960 280.000,168.800 278.301,168.800 276.224 C 168.800 274.137,168.621 272.337,168.400 272.200 C 168.137 272.038,168.000 256.329,168.000 226.376 L 168.000 180.800 161.403 180.800 L 154.806 180.800 154.703 205.500 L 154.600 230.200 148.800 230.315 C 145.610 230.378,142.596 230.330,142.103 230.208 L 141.206 229.986 141.103 205.493 L 141.000 181.000 134.400 180.800 L 127.800 180.600 127.688 175.204 C 127.589 170.478,127.661 169.745,128.264 169.304 C 128.796 168.915,133.414 168.800,148.476 168.800 L 168.000 168.800 168.000 148.624 C 168.000 135.604,168.142 128.360,168.400 128.200 C 168.621 128.063,168.800 126.263,168.800 124.176 C 168.800 122.045,168.966 120.400,169.182 120.400 C 169.392 120.400,169.672 119.725,169.804 118.900 C 169.936 118.075,170.214 117.087,170.422 116.705 C 170.630 116.323,170.800 115.648,170.800 115.205 C 170.800 114.762,170.980 114.400,171.200 114.400 C 171.420 114.400,171.600 113.965,171.600 113.433 C 171.600 112.902,171.735 112.407,171.900 112.333 C 172.207 112.197,174.400 108.959,174.400 108.642 C 174.400 108.546,175.210 107.598,176.200 106.535 C 177.190 105.471,178.000 104.466,178.000 104.301 C 178.000 104.135,178.270 104.000,178.600 104.000 C 178.930 104.000,179.200 103.850,179.200 103.668 C 179.200 103.485,179.690 103.080,180.288 102.768 C 180.886 102.455,181.679 101.903,182.049 101.539 C 182.888 100.715,187.688 98.400,188.557 98.400 C 188.911 98.400,189.200 98.220,189.200 98.000 C 189.200 97.780,189.704 97.600,190.320 97.600 C 190.936 97.600,191.611 97.437,191.820 97.239 C 192.029 97.040,193.010 96.779,194.000 96.658 C 194.990 96.537,196.880 96.264,198.200 96.053 C 199.520 95.841,202.310 95.668,204.400 95.668 C 206.490 95.668,209.280 95.841,210.600 96.053 C 211.920 96.264,213.810 96.537,214.800 96.658 C 215.790 96.779,216.771 97.040,216.980 97.239 C 217.189 97.437,217.776 97.600,218.285 97.600 C 218.794 97.600,219.523 97.757,219.905 97.948 C 223.979 99.990,226.700 101.211,227.167 101.206 C 227.478 101.203,227.635 101.298,227.515 101.418 C 227.218 101.715,229.542 104.000,230.142 104.000 C 230.665 104.000,232.000 105.400,232.000 105.949 C 232.000 106.135,232.450 106.626,233.000 107.039 C 233.550 107.452,234.000 108.017,234.000 108.295 C 234.000 108.573,234.180 108.800,234.400 108.800 C 234.620 108.800,234.800 109.008,234.800 109.262 C 234.800 109.516,235.250 110.314,235.800 111.036 C 236.350 111.757,236.800 112.618,236.800 112.950 C 236.800 113.281,236.980 113.664,237.200 113.800 C 237.420 113.936,237.600 114.487,237.600 115.024 C 237.600 115.561,237.780 116.000,238.000 116.000 C 238.220 116.000,238.400 116.416,238.400 116.924 C 238.400 117.431,238.664 118.196,238.987 118.624 C 239.341 119.091,239.580 120.315,239.587 121.700 C 239.594 122.965,239.780 124.000,240.000 124.000 C 240.261 124.000,240.400 130.067,240.400 141.400 L 240.400 158.800 270.400 158.800 L 300.400 158.800 300.400 136.424 C 300.400 121.937,300.259 113.960,300.000 113.800 C 299.780 113.664,299.600 112.562,299.600 111.350 C 299.600 110.139,299.424 108.818,299.208 108.415 C 298.993 108.013,298.731 106.812,298.627 105.748 C 298.523 104.683,298.249 103.750,298.019 103.673 C 297.788 103.596,297.600 102.738,297.600 101.767 C 297.600 100.795,297.420 100.000,297.200 100.000 C 296.980 100.000,296.800 99.481,296.800 98.846 C 296.800 98.211,296.531 97.176,296.202 96.546 C 295.874 95.916,295.604 95.096,295.602 94.724 C 295.601 94.352,295.420 93.936,295.200 93.800 C 294.980 93.664,294.800 93.113,294.800 92.576 C 294.800 92.039,294.620 91.600,294.400 91.600 C 294.180 91.600,294.000 91.288,294.000 90.906 C 294.000 90.276,293.345 88.748,291.149 84.257 C 290.159 82.233,289.056 80.250,288.779 80.000 C 288.658 79.890,288.244 79.125,287.860 78.300 C 287.477 77.475,286.991 76.800,286.781 76.800 C 286.572 76.800,286.400 76.530,286.400 76.200 C 286.400 75.870,286.220 75.600,286.000 75.600 C 285.780 75.600,285.600 75.363,285.600 75.073 C 285.600 74.783,284.967 73.838,284.194 72.973 C 283.421 72.108,282.567 70.905,282.296 70.300 C 282.026 69.695,281.579 69.200,281.302 69.200 C 281.026 69.200,280.800 69.065,280.800 68.900 C 280.799 68.389,278.932 66.400,278.453 66.400 C 278.204 66.400,278.000 66.214,278.000 65.987 C 278.000 65.449,275.351 62.800,274.813 62.800 C 274.586 62.800,274.400 62.596,274.400 62.347 C 274.400 61.876,273.609 61.100,271.781 59.775 C 271.193 59.349,270.474 58.775,270.184 58.500 C 269.894 58.225,269.504 58.000,269.317 58.000 C 269.130 58.000,268.712 57.629,268.388 57.175 C 268.065 56.721,267.215 56.071,266.500 55.729 C 265.785 55.388,265.200 54.949,265.200 54.754 C 265.200 54.559,264.945 54.400,264.633 54.400 C 264.322 54.400,264.007 54.248,263.933 54.061 C 263.737 53.562,260.016 51.488,254.800 48.971 C 252.270 47.751,249.887 46.583,249.505 46.376 C 249.123 46.169,248.463 46.000,248.039 46.000 C 247.614 46.000,247.206 45.818,247.132 45.596 C 247.058 45.374,246.605 45.116,246.125 45.024 C 245.645 44.932,244.892 44.663,244.452 44.428 C 244.012 44.193,243.201 44.000,242.650 44.000 C 242.098 44.000,241.536 43.820,241.400 43.600 C 241.264 43.380,240.634 43.200,240.000 43.200 C 239.366 43.200,238.749 43.041,238.629 42.846 C 238.508 42.652,237.598 42.371,236.605 42.222 C 235.612 42.073,234.800 41.782,234.800 41.575 C 234.800 41.369,233.911 41.200,232.824 41.200 C 231.737 41.200,230.736 41.020,230.600 40.800 C 230.464 40.580,229.294 40.400,228.000 40.400 C 226.706 40.400,225.536 40.220,225.400 40.000 C 225.264 39.780,223.768 39.594,222.076 39.587 C 220.008 39.579,218.746 39.382,218.224 38.987 C 217.068 38.114,190.532 38.114,189.376 38.987 " stroke="none" fill="#ee3342" fill-rule="evenodd"></path><path id="path3" d="M188.584 38.827 C 188.160 39.513,188.539 39.580,189.377 38.967 C 190.026 38.493,190.046 38.400,189.500 38.400 C 189.141 38.400,188.729 38.592,188.584 38.827 M168.576 42.587 C 168.149 42.910,167.989 43.180,168.220 43.187 C 168.451 43.194,168.811 43.037,169.020 42.839 C 169.229 42.640,169.760 42.391,170.200 42.285 C 170.980 42.097,170.980 42.092,170.176 42.046 C 169.724 42.021,169.004 42.264,168.576 42.587 M270.000 58.357 C 270.000 58.554,270.285 58.824,270.633 58.957 C 271.611 59.333,271.708 59.251,271.057 58.600 C 270.377 57.920,270.000 57.833,270.000 58.357 M133.376 60.187 C 132.949 60.510,132.780 60.775,133.000 60.775 C 133.220 60.775,133.749 60.510,134.176 60.187 C 134.604 59.864,134.773 59.600,134.553 59.600 C 134.333 59.600,133.804 59.864,133.376 60.187 M282.645 71.012 C 283.010 71.569,283.386 71.947,283.482 71.851 C 283.719 71.614,282.684 70.000,282.295 70.000 C 282.122 70.000,282.280 70.456,282.645 71.012 M119.700 73.398 C 119.131 74.045,119.061 74.400,119.504 74.400 C 119.671 74.400,120.032 74.040,120.307 73.600 C 120.878 72.687,120.451 72.545,119.700 73.398 M295.120 93.680 C 295.384 93.944,295.600 94.514,295.600 94.947 C 295.600 95.379,295.712 95.622,295.848 95.485 C 296.242 95.091,295.634 93.200,295.112 93.200 C 294.753 93.200,294.755 93.315,295.120 93.680 M202.100 95.896 C 203.365 95.975,205.435 95.975,206.700 95.896 C 207.965 95.816,206.930 95.751,204.400 95.751 C 201.870 95.751,200.835 95.816,202.100 95.896 M219.200 97.912 C 219.200 98.434,221.091 99.042,221.485 98.648 C 221.622 98.512,221.379 98.400,220.947 98.400 C 220.514 98.400,219.944 98.184,219.680 97.920 C 219.315 97.555,219.200 97.553,219.200 97.912 M186.842 98.834 C 186.315 99.045,186.000 99.334,186.143 99.476 C 186.285 99.618,186.806 99.537,187.301 99.297 C 187.795 99.056,188.470 98.770,188.800 98.661 C 189.201 98.529,189.134 98.461,188.600 98.457 C 188.160 98.454,187.369 98.623,186.842 98.834 M230.413 104.225 C 230.433 104.830,231.569 106.164,231.836 105.897 C 231.970 105.763,231.702 105.247,231.240 104.751 C 230.778 104.255,230.406 104.018,230.413 104.225 M103.232 106.100 C 103.253 106.701,103.339 106.801,103.492 106.400 C 103.617 106.070,103.918 105.668,104.160 105.506 C 104.431 105.325,104.332 105.210,103.900 105.206 C 103.430 105.202,103.210 105.495,103.232 106.100 M298.806 107.500 C 298.824 108.377,299.588 108.959,299.594 108.100 C 299.597 107.605,299.420 107.200,299.200 107.200 C 298.980 107.200,298.803 107.335,298.806 107.500 M174.800 108.000 C 174.483 108.196,174.356 108.489,174.518 108.652 C 174.681 108.814,175.023 108.737,175.280 108.480 C 175.884 107.876,175.547 107.538,174.800 108.000 M172.832 111.139 C 172.179 112.360,172.314 112.700,173.041 111.663 C 173.393 111.160,173.588 110.654,173.473 110.540 C 173.359 110.425,173.070 110.695,172.832 111.139 M238.545 118.800 C 238.619 119.350,238.797 119.755,238.940 119.700 C 239.375 119.533,239.369 119.430,238.881 118.600 C 238.439 117.848,238.418 117.860,238.545 118.800 M169.600 119.767 C 169.600 120.078,169.375 120.424,169.100 120.535 C 168.801 120.656,168.882 120.750,169.300 120.768 C 169.744 120.788,170.000 120.507,170.000 120.000 C 170.000 119.560,169.910 119.200,169.800 119.200 C 169.690 119.200,169.600 119.455,169.600 119.767 M100.537 279.769 C 100.572 280.429,100.862 281.009,101.200 281.100 C 101.601 281.207,101.648 281.151,101.340 280.930 C 101.088 280.749,100.789 280.150,100.677 279.600 C 100.501 278.739,100.482 278.762,100.537 279.769 M168.800 279.567 C 168.800 279.805,168.967 280.000,169.171 280.000 C 169.375 280.000,169.633 280.315,169.745 280.700 C 169.867 281.121,169.918 281.014,169.874 280.431 C 169.803 279.496,168.800 278.688,168.800 279.567 M238.538 281.017 C 238.178 281.955,238.567 282.066,239.119 281.182 C 239.428 280.687,239.454 280.400,239.191 280.400 C 238.962 280.400,238.668 280.678,238.538 281.017 M231.700 293.823 C 231.111 294.463,231.062 294.800,231.557 294.800 C 231.898 294.800,232.537 293.596,232.309 293.383 C 232.249 293.327,231.975 293.525,231.700 293.823 M298.352 295.513 C 298.221 296.307,298.279 296.681,298.501 296.459 C 298.703 296.257,298.801 295.667,298.719 295.146 C 298.593 294.345,298.537 294.402,298.352 295.513 M180.000 297.191 C 180.000 297.416,180.167 297.600,180.371 297.600 C 180.576 297.600,181.026 297.883,181.371 298.229 C 181.717 298.574,182.000 298.685,182.000 298.475 C 182.000 298.264,181.550 297.797,181.000 297.437 C 180.450 297.076,180.000 296.966,180.000 297.191 M211.867 303.467 C 211.484 303.849,211.538 304.400,211.957 304.400 C 212.154 304.400,212.418 304.130,212.545 303.800 C 212.779 303.190,212.353 302.981,211.867 303.467 M295.600 305.053 C 295.600 305.486,295.384 306.056,295.120 306.320 C 294.755 306.685,294.753 306.800,295.112 306.800 C 295.634 306.800,296.242 304.909,295.848 304.515 C 295.712 304.378,295.600 304.621,295.600 305.053 M108.800 309.176 C 108.800 309.409,108.967 309.600,109.172 309.600 C 109.377 309.600,109.602 309.991,109.672 310.469 C 109.742 310.946,110.017 311.409,110.283 311.496 C 110.617 311.606,110.578 311.279,110.158 310.436 C 109.509 309.135,108.800 308.477,108.800 309.176 M292.864 311.963 C 292.428 312.865,292.224 313.509,292.410 313.394 C 292.872 313.108,294.046 310.713,293.830 310.496 C 293.734 310.401,293.299 311.061,292.864 311.963 M114.425 319.000 C 114.425 319.220,114.690 319.749,115.013 320.176 C 115.336 320.604,115.600 320.773,115.600 320.553 C 115.600 320.333,115.336 319.804,115.013 319.376 C 114.690 318.949,114.425 318.780,114.425 319.000 M119.200 325.804 C 119.200 326.117,121.451 328.400,121.759 328.400 C 121.910 328.400,121.575 327.907,121.016 327.304 C 120.457 326.701,120.000 326.071,120.000 325.904 C 120.000 325.737,119.820 325.600,119.600 325.600 C 119.380 325.600,119.200 325.692,119.200 325.804 M282.493 329.200 C 282.218 329.640,282.098 330.000,282.225 330.000 C 282.525 330.000,283.600 328.927,283.600 328.629 C 283.600 328.120,282.962 328.449,282.493 329.200 M133.000 339.600 C 132.864 339.820,132.808 340.014,132.876 340.031 C 134.193 340.357,134.417 340.303,133.973 339.768 C 133.413 339.093,133.323 339.077,133.000 339.600 M136.800 342.391 C 136.800 342.616,136.967 342.800,137.171 342.800 C 137.376 342.800,137.826 343.083,138.171 343.429 C 138.517 343.774,138.800 343.885,138.800 343.675 C 138.800 343.464,138.350 342.997,137.800 342.637 C 137.250 342.276,136.800 342.166,136.800 342.391 M141.200 345.609 C 141.200 345.824,141.470 346.000,141.800 346.000 C 142.130 346.000,142.400 346.180,142.400 346.400 C 142.400 346.620,142.580 346.800,142.800 346.800 C 143.556 346.800,143.199 346.128,142.200 345.673 C 141.592 345.396,141.200 345.370,141.200 345.609 M260.800 348.000 C 260.800 348.220,260.552 348.400,260.249 348.400 C 259.946 348.400,259.474 348.670,259.200 349.000 C 258.856 349.415,258.841 349.600,259.151 349.600 C 259.398 349.600,259.600 349.420,259.600 349.200 C 259.600 348.980,259.848 348.800,260.151 348.800 C 260.454 348.800,260.926 348.530,261.200 348.200 C 261.544 347.785,261.559 347.600,261.249 347.600 C 261.002 347.600,260.800 347.780,260.800 348.000 M168.200 357.200 C 168.064 357.420,168.008 357.614,168.076 357.631 C 169.393 357.957,169.617 357.903,169.173 357.368 C 168.613 356.693,168.523 356.677,168.200 357.200 M238.223 357.433 C 237.574 357.907,237.554 358.000,238.100 358.000 C 238.459 358.000,238.871 357.808,239.016 357.573 C 239.440 356.887,239.061 356.820,238.223 357.433 M181.200 359.912 C 181.200 360.514,182.764 360.913,184.252 360.691 C 185.161 360.555,185.063 360.507,183.780 360.460 C 182.889 360.427,181.944 360.184,181.680 359.920 C 181.315 359.555,181.200 359.553,181.200 359.912 M225.600 359.978 C 225.600 360.186,224.745 360.424,223.700 360.506 L 221.800 360.656 223.651 360.728 C 224.880 360.776,225.669 360.599,226.000 360.200 C 226.344 359.785,226.359 359.600,226.049 359.600 C 225.802 359.600,225.600 359.770,225.600 359.978 " stroke="none" fill="#ff0000" fill-rule="evenodd"></path></g></svg>