<?xml version="1.0" standalone="no"?>
<!DOCTYPE svg PUBLIC "-//W3C//DTD SVG 20010904//EN"
 "http://www.w3.org/TR/2001/REC-SVG-20010904/DTD/svg10.dtd">
<svg version="1.0" xmlns="http://www.w3.org/2000/svg"
 width="432.000000pt" height="432.000000pt" viewBox="0 0 432.000000 432.000000"
 preserveAspectRatio="xMidYMid meet">
<metadata>
Created by potrace 1.15, written by Peter Selinger 2001-2017
</metadata>
<g transform="translate(0.000000,432.000000) scale(0.100000,-0.100000)"
fill="#000000" stroke="none">
<path d="M2030 3895 c-8 -2 -49 -9 -90 -15 -225 -36 -430 -141 -582 -297 -117
-121 -193 -256 -240 -431 -19 -69 -22 -122 -30 -530 -6 -286 -6 -623 0 -915 8
-418 11 -469 30 -539 103 -382 378 -633 794 -725 126 -27 468 -25 594 4 195
46 331 115 456 232 125 117 201 245 248 416 20 71 23 111 27 348 l5 267 -321
0 -321 0 0 -175 c0 -95 -5 -198 -11 -227 -37 -171 -156 -264 -354 -275 -204
-12 -353 76 -403 236 -15 51 -17 129 -17 891 0 783 1 838 18 889 36 108 103
175 212 217 77 29 259 26 339 -5 107 -42 180 -131 205 -249 6 -29 11 -132 11
-227 l0 -175 321 0 321 0 -5 268 c-4 236 -7 276 -27 347 -47 171 -123 299
-248 416 -90 84 -172 136 -286 180 -143 55 -232 70 -441 74 -104 2 -197 2
-205 0z"/>
<path d="M611 2499 c-44 -18 -82 -51 -104 -92 -21 -39 -22 -54 -22 -242 0
-189 1 -202 23 -242 12 -24 41 -55 64 -70 35 -24 54 -29 123 -31 67 -3 89 0
121 16 71 36 104 95 104 187 l0 55 -70 0 -70 0 0 -48 c0 -59 -20 -82 -72 -82
-64 0 -68 13 -68 217 0 202 4 213 72 213 48 0 68 -25 68 -83 l0 -47 70 0 70 0
0 55 c0 136 -73 206 -212 204 -40 0 -84 -5 -97 -10z"/>
<path d="M1960 2165 l0 -335 75 0 75 0 0 335 0 335 -75 0 -75 0 0 -335z"/>
<path d="M2280 2435 l0 -65 115 0 115 0 -120 -240 c-74 -147 -120 -251 -120
-270 l0 -30 210 0 210 0 0 65 0 65 -115 0 c-63 0 -115 2 -115 3 0 2 52 110
115 240 68 141 115 249 115 267 l0 30 -205 0 -205 0 0 -65z"/>
<path d="M2850 2165 l0 -335 190 0 190 0 0 70 0 70 -115 0 -115 0 0 75 0 75
80 0 80 0 0 60 0 60 -80 0 -80 0 0 65 0 65 115 0 115 0 0 65 0 65 -190 0 -190
0 0 -335z"/>
<path d="M3390 2165 l0 -335 70 0 70 0 0 173 0 172 93 -170 93 -170 62 -3 62
-3 0 336 0 335 -70 0 -70 0 0 -177 -1 -178 -92 177 -92 178 -62 0 -63 0 0
-335z"/>
</g>
</svg>
